<svg width="48" height="48" viewBox="0 0 48 48" fill="none" xmlns="http://www.w3.org/2000/svg">
<circle cx="24" cy="24" r="23.4" fill="white" stroke="#E1E1E1" stroke-width="1.2"/>
<path d="M29.6569 28.6569C28.7202 29.5935 26.7616 31.5521 25.4138 32.8999C24.6327 33.681 23.3677 33.6814 22.5866 32.9003C21.2623 31.576 19.3416 29.6553 18.3431 28.6569C15.219 25.5327 15.219 20.4673 18.3431 17.3431C21.4673 14.219 26.5327 14.219 29.6569 17.3431C32.781 20.4673 32.781 25.5327 29.6569 28.6569Z" stroke="#111827" stroke-width="2" stroke-linecap="round" stroke-linejoin="round"/>
<path d="M27 23C27 24.6569 25.6569 26 24 26C22.3431 26 21 24.6569 21 23C21 21.3431 22.3431 20 24 20C25.6569 20 27 21.3431 27 23Z" stroke="#111827" stroke-width="2" stroke-linecap="round" stroke-linejoin="round"/>
</svg>
