<svg width="36" height="36" viewBox="0 0 36 36" fill="none" xmlns="http://www.w3.org/2000/svg">
<g clip-path="url(#clip0_32_1294)">
<path d="M36 26C36 28.209 34.209 30 32 30H8C5.791 30 4 28.209 4 26V6.313C4 4.104 9.791 0 12 0H30.625C33.719 0 36 2.312 36 5.375V26Z" fill="#F4900C"/>
<path d="M34 30C34 32.209 32.209 34 30 34H10C7.791 34 6 32.209 6 30V5.99999C6 1.88099 5.979 1.99999 11 1.99999H30C32.209 1.99999 34 3.79099 34 5.99999V30Z" fill="#CCD6DD"/>
<path d="M32 31C32 32.657 30.657 34 29 34H7C5.343 34 4 32.657 4 31V7C4 5.343 5.343 4 7 4H29C30.657 4 32 5.343 32 7V31Z" fill="#E1E8ED"/>
<path d="M32 32C32 34.209 30.209 36 28 36H9C6.791 36 5 34.209 5 32V10C5 7.791 6.791 6 9 6H28C30.209 6 32 7.791 32 10V32Z" fill="#FFAC33"/>
<path d="M30 32C30 34.209 28.209 36 26 36H9C6.791 36 5 34.209 5 32V12C5 9.791 6.791 8 9 8H26.335C28.544 8 30 9.456 30 11.665V32Z" fill="#FFCC4D"/>
<path d="M9 6C7.312 6 7.269 4.078 8 3.25C8.832 2.309 10.125 2 12.438 2H14V0H11.281C7.312 0 4 2.5 4 5.375V32C4 34.209 5.791 36 8 36H10V6H9Z" fill="#F4900C"/>
<path d="M8.542 32.979C8.542 33.681 7.875 34.25 7.052 34.25C6.23 34.25 5.563 33.681 5.563 32.979C5.563 32.278 6.23 31.708 7.052 31.708C7.875 31.708 8.542 32.277 8.542 32.979Z" fill="#662113"/>
<path d="M6.89399 32.271C6.41399 32.326 6.10199 32.646 5.87699 33C5.56999 33.485 4.86999 34 3.99999 34C2.89599 34 1.99999 33.329 1.99999 32.5C1.99999 31.671 2.89599 31 3.99999 31V29.004C1.83299 29.025 0.0829926 30.579 0.0829926 32.5C0.0829926 34.434 1.85499 36 4.04099 36C5.89499 36 7.38799 34.955 7.94199 33.431C8.21899 32.672 7.47299 32.207 6.89399 32.271Z" fill="#66757F"/>
<path d="M8.542 24.979C8.542 25.681 7.875 26.25 7.052 26.25C6.23 26.25 5.563 25.681 5.563 24.979C5.563 24.278 6.23 23.708 7.052 23.708C7.875 23.708 8.542 24.277 8.542 24.979Z" fill="#662113"/>
<path d="M6.89399 24.271C6.41399 24.326 6.10199 24.646 5.87699 25C5.56999 25.485 4.86999 26 3.99999 26C2.89599 26 1.99999 25.329 1.99999 24.5C1.99999 23.671 2.89599 23 3.99999 23V21.004C1.83299 21.025 0.0829926 22.579 0.0829926 24.5C0.0829926 26.434 1.85499 28 4.04099 28C5.89499 28 7.38799 26.955 7.94199 25.431C8.21899 24.672 7.47299 24.207 6.89399 24.271Z" fill="#66757F"/>
<path d="M8.542 16.979C8.542 17.681 7.875 18.25 7.052 18.25C6.23 18.25 5.563 17.681 5.563 16.979C5.563 16.278 6.23 15.708 7.052 15.708C7.875 15.708 8.542 16.277 8.542 16.979Z" fill="#662113"/>
<path d="M6.89399 16.271C6.41399 16.326 6.10199 16.646 5.87699 17C5.56999 17.485 4.86999 18 3.99999 18C2.89599 18 1.99999 17.329 1.99999 16.5C1.99999 15.671 2.89599 15 3.99999 15V13.004C1.83299 13.025 0.0829926 14.579 0.0829926 16.5C0.0829926 18.434 1.85499 20 4.04099 20C5.89499 20 7.38799 18.955 7.94199 17.431C8.21899 16.672 7.47299 16.207 6.89399 16.271Z" fill="#66757F"/>
<path d="M8.542 8.97901C8.542 9.68101 7.875 10.25 7.052 10.25C6.23 10.25 5.563 9.68101 5.563 8.97901C5.563 8.27801 6.23 7.70801 7.052 7.70801C7.875 7.70801 8.542 8.27701 8.542 8.97901Z" fill="#662113"/>
<path d="M6.89399 8.27103C6.41399 8.32603 6.10199 8.64603 5.87699 9.00003C5.56999 9.48503 4.86999 10 3.99999 10C2.89599 10 1.99999 9.32903 1.99999 8.50003C1.99999 7.67103 2.89599 7.00003 3.99999 7.00003V5.00403C1.83399 5.02403 0.0829926 6.57903 0.0829926 8.50003C0.0829926 10.434 1.85499 12 4.04099 12C5.89499 12 7.38799 10.955 7.94199 9.43103C8.21899 8.67203 7.47299 8.20703 6.89399 8.27103Z" fill="#66757F"/>
</g>
<defs>
<clipPath id="clip0_32_1294">
<rect width="36" height="36" fill="white"/>
</clipPath>
</defs>
</svg>
