<svg width="24" height="24" viewBox="0 0 24 24" fill="none" xmlns="http://www.w3.org/2000/svg">
<g clip-path="url(#clip0_502_4105)">
<path d="M12 24C13.4728 24 14.6667 23.5523 14.6667 23C14.6667 22.4477 13.4728 22 12 22C10.5273 22 9.33337 22.4477 9.33337 23C9.33337 23.5523 10.5273 24 12 24Z" fill="#292F33"/>
<path d="M9.55933 7.15015C9.55933 7.15015 11.2627 23.3321 12.0007 23.3335C12.738 23.3341 14.4407 7.15015 14.4407 7.15015H9.55933Z" fill="#99AAB5"/>
<path d="M12 10.6667C14.9455 10.6667 17.3333 8.27885 17.3333 5.33333C17.3333 2.38781 14.9455 0 12 0C9.05444 0 6.66663 2.38781 6.66663 5.33333C6.66663 8.27885 9.05444 10.6667 12 10.6667Z" fill="#DD2E44"/>
</g>
<defs>
<clipPath id="clip0_502_4105">
<rect width="24" height="24" fill="white"/>
</clipPath>
</defs>
</svg>
