<svg width="24" height="24" viewBox="0 0 24 24" fill="none" xmlns="http://www.w3.org/2000/svg">
<g clip-path="url(#clip0_502_4094)">
<path d="M10 5.99995L14 1.99995C14 1.99995 18 -2.00005 22 1.99995C26 5.99995 22 9.99995 22 9.99995L16.6667 15.3333C16.6667 15.3333 12.6667 19.3333 8.66669 15.3333C7.91669 14.5833 7.45203 13.5866 7.45203 13.5866L9.68736 11.3546C9.68736 11.3546 9.59736 12.2639 10.6667 13.3333C10.6667 13.3333 12.6667 15.3333 14.6667 13.3333L20 7.99995C20 7.99995 22 5.99995 20 3.99995C18 1.99995 16 3.99995 16 3.99995L13.514 6.48595C13.514 6.48595 12.278 5.47195 9.75003 6.24995L10 5.99995Z" fill="#8899A6"/>
<path d="M13.8967 18L9.89667 22C9.89667 22 5.89667 26 1.89667 22C-2.10333 18 1.89667 14 1.89667 14L7.23001 8.66669C7.23001 8.66669 11.23 4.66669 15.23 8.66669C15.98 9.41669 16.4447 10.4134 16.4447 10.4134L14.2087 12.646C14.2087 12.646 14.2987 11.736 13.2293 10.6667C13.2293 10.6667 11.2293 8.66669 9.22934 10.6667L3.89601 16C3.89601 16 1.89601 18 3.89601 20C5.89601 22 7.89601 20 7.89601 20L10.382 17.514C10.382 17.514 11.618 18.528 14.146 17.75L13.8967 18Z" fill="#8899A6"/>
</g>
<defs>
<clipPath id="clip0_502_4094">
<rect width="24" height="24" fill="white"/>
</clipPath>
</defs>
</svg>
