<svg width="361" height="136" viewBox="0 0 361 136" fill="none" xmlns="http://www.w3.org/2000/svg">
<rect width="361" height="136" rx="16" fill="#F2F2F2"/>
<path d="M124.272 82.218V83.464H122.648C122.144 83.464 121.822 83.45 121.5 83.408C121.542 83.758 121.556 84.01 121.556 84.458V89.47C121.556 89.974 121.542 90.17 121.5 90.506C121.864 90.464 122.088 90.45 122.76 90.45H127.282C127.926 90.45 128.15 90.464 128.514 90.506C128.472 90.198 128.458 89.988 128.458 89.47V84.458C128.458 84.01 128.472 83.716 128.514 83.408C128.192 83.45 127.87 83.464 127.366 83.464H125.7V82.218H129.648C130.222 82.218 130.852 82.246 131.356 82.302V80.762C130.81 80.818 130.264 80.846 129.634 80.846H120.394C119.736 80.846 119.218 80.818 118.7 80.762V82.302C119.274 82.246 119.792 82.218 120.422 82.218H124.272ZM124.272 84.766V86.236H122.914V84.766H124.272ZM125.7 84.766H127.114V86.236H125.7V84.766ZM124.272 87.496V89.204H122.914V87.496H124.272ZM125.7 87.496H127.114V89.204H125.7V87.496ZM129.396 83.674C129.452 84.024 129.466 84.332 129.466 84.892V91.374H120.562V84.92C120.562 84.29 120.576 83.996 120.618 83.674H118.994C119.05 84.178 119.078 84.668 119.078 85.228V91.528C119.078 92.27 119.05 92.802 118.994 93.39H120.59V92.732H129.424V93.39H131.048C130.978 92.802 130.95 92.242 130.95 91.514V85.242C130.95 84.752 130.978 84.164 131.034 83.674H129.396ZM136.338 85.396C136.338 85.844 136.324 86.124 136.296 86.432C136.646 86.404 137.01 86.39 137.416 86.39H138.718C137.71 86.978 136.674 87.342 135.26 87.622C135.666 88.21 135.694 88.266 135.89 88.686C136.982 88.392 137.878 88.028 138.732 87.58C138.914 87.762 138.998 87.846 139.194 88.084C137.836 88.854 136.842 89.246 135.232 89.652C135.47 89.96 135.68 90.31 135.862 90.744C137.794 90.016 138.438 89.722 139.768 88.924C139.922 89.19 139.964 89.288 140.076 89.526C138.676 90.506 137.136 91.22 135.232 91.794C135.526 92.214 135.736 92.606 135.848 92.984C137.08 92.508 137.248 92.438 138.074 92.004C138.312 92.536 138.41 92.83 138.494 93.334C138.97 93.348 139.264 93.348 139.432 93.348C140.272 93.348 140.79 93.264 141.112 93.068C141.532 92.788 141.756 92.186 141.756 91.234C141.756 89.722 141.042 88.182 139.768 86.936C140.006 86.782 140.048 86.74 140.51 86.39H141.056C141.28 87.622 141.56 88.49 142.078 89.498C142.736 90.786 143.422 91.598 144.85 92.788C145.088 92.256 145.27 91.892 145.606 91.346C145.004 90.982 144.752 90.8 144.444 90.506C143.968 90.058 143.632 89.652 143.296 89.092C143.73 88.854 144.472 88.308 145.158 87.72L145.34 87.566L144.192 86.572C143.702 87.132 143.394 87.398 142.694 87.86C142.498 87.328 142.442 87.104 142.302 86.39H143.632C144.192 86.39 144.416 86.404 144.738 86.432C144.71 86.124 144.696 85.914 144.696 85.298V84.276C144.696 83.772 144.71 83.492 144.738 83.17C144.43 83.198 144.15 83.212 143.632 83.212H141.994C142.092 83.1 142.12 83.072 142.218 82.96C142.344 82.806 142.456 82.68 142.526 82.596C142.68 82.428 142.764 82.316 142.806 82.274C143.156 81.812 143.156 81.812 143.254 81.714L142.61 81.126C142.274 81.154 141.938 81.168 141.434 81.168H139.628C139.838 80.86 139.838 80.86 140.02 80.566L138.382 80.314C137.934 81.28 137.472 81.882 136.548 82.722C136.072 83.156 135.834 83.324 135.022 83.87C135.456 82.904 135.456 82.904 136.282 80.664L134.658 80.3C134.588 80.79 134.448 81.308 134.154 82.092C133.608 83.534 132.88 84.794 132.012 85.802C132.278 86.348 132.404 86.698 132.628 87.482C133.006 87.006 133.328 86.516 133.608 86.054C133.566 87.09 133.566 87.356 133.566 87.846V91.668C133.566 92.396 133.552 92.76 133.482 93.348H135.092C135.036 92.816 135.022 92.382 135.022 91.654V83.968C135.372 84.304 135.596 84.612 135.806 85.004C136.072 84.808 136.128 84.766 136.338 84.612V85.396ZM138.004 83.212C138.312 82.904 138.508 82.694 138.802 82.33H141.028C140.818 82.638 140.65 82.834 140.314 83.212H138.004ZM140.342 90.646C140.356 90.814 140.356 90.898 140.356 90.968C140.356 91.906 140.216 92.088 139.418 92.088C139.012 92.088 138.676 92.06 138.13 91.976C139.25 91.388 139.712 91.108 140.342 90.646ZM137.738 84.262H139.67V85.368H137.738V84.262ZM141.056 84.262H143.24V85.368H141.056V84.262ZM147.06 83.73C147.158 83.716 147.242 83.716 147.284 83.716C147.41 83.716 147.41 83.716 147.676 83.73C147.984 83.73 149.216 83.758 149.44 83.758C149.44 83.758 149.622 83.744 149.678 83.744C149.622 83.814 149.622 83.814 149.566 83.926C149.286 84.458 148.432 85.676 147.886 86.32C147.396 86.894 146.99 87.286 146.626 87.566L147.9 88.826C148.208 88.392 148.53 88.042 149.118 87.552C150.196 86.6 151.176 86.11 151.988 86.11C152.492 86.11 152.772 86.348 152.842 86.866C151.26 87.524 150.462 88.056 149.832 88.84C149.384 89.372 149.216 89.82 149.216 90.394C149.216 91.164 149.594 91.836 150.238 92.2C150.952 92.62 151.876 92.788 153.36 92.788C154.592 92.788 155.936 92.69 156.944 92.536C157.28 92.494 157.35 92.48 157.588 92.48L157.448 90.674C156.454 91.052 155.012 91.262 153.332 91.262C151.638 91.262 150.966 90.968 150.966 90.24C150.966 89.834 151.204 89.456 151.694 89.092C151.988 88.882 152.352 88.686 153.038 88.364C153.038 88.504 153.038 88.504 153.038 88.7C153.038 89.358 153.01 90.072 152.954 90.324L154.578 90.282C154.55 90.044 154.536 89.848 154.536 89.54C154.536 89.442 154.536 89.316 154.55 89.078C154.55 88.896 154.55 88.658 154.55 88.518C154.55 88.322 154.55 88.322 154.536 87.958V87.804C155.74 87.384 156.44 87.146 156.636 87.09C157.378 86.88 157.798 86.768 158.19 86.712L157.532 85.102C157.308 85.242 157.252 85.256 156.496 85.522C156.146 85.634 155.432 85.886 154.354 86.278C154.13 85.312 153.444 84.794 152.352 84.794C151.638 84.794 150.896 85.032 150.378 85.424C150.196 85.564 150.196 85.564 150.098 85.634L150.084 85.606C150.574 85.102 150.966 84.542 151.372 83.744C152.786 83.702 154.564 83.59 155.586 83.464C156.3 83.38 156.3 83.38 156.692 83.352L156.594 81.756C155.824 81.98 154.55 82.134 152.926 82.232C152.156 82.274 152.156 82.274 152.044 82.288C152.072 82.232 152.1 82.19 152.17 82.036C152.646 80.916 152.646 80.916 152.73 80.776L150.896 80.58C150.84 81.056 150.714 81.476 150.336 82.316C148.558 82.316 147.662 82.26 147.088 82.134L147.06 83.73ZM171.446 81.49C171.054 81.602 170.928 81.616 170.088 81.616H162.78C161.814 81.616 161.38 81.588 160.848 81.504V83.254C161.422 83.184 161.772 83.17 162.752 83.17H170.102C169.78 83.842 169.346 84.416 168.772 84.948C168.198 85.494 167.666 85.816 166.728 86.236C167.358 86.712 167.568 86.922 167.988 87.51C168.646 87.146 169.108 86.838 169.668 86.348C170.522 85.62 171.334 84.57 171.824 83.534C172.188 82.806 172.188 82.792 172.384 82.554L171.446 81.49ZM164.796 84.318C164.852 84.612 164.866 84.738 164.866 85.158C164.866 87.804 164.418 89.008 162.99 90.142C162.304 90.688 161.674 90.996 160.54 91.332C161.1 91.92 161.282 92.172 161.646 92.928C163.396 92.2 164.418 91.486 165.258 90.408C166.21 89.19 166.588 87.846 166.644 85.452C166.658 84.598 166.658 84.584 166.7 84.318H164.796ZM175.28 84.584C175.91 85.816 176.19 86.558 176.554 87.972L178.136 87.468C177.632 85.9 177.352 85.228 176.764 84.15L175.28 84.584ZM178.276 83.996C178.864 85.144 179.284 86.222 179.55 87.286L181.104 86.796C180.754 85.578 180.488 84.962 179.746 83.576L178.276 83.996ZM183.092 83.856C183.092 84.29 183.022 84.78 182.84 85.466C182.238 87.706 181.3 89.134 179.662 90.324C178.836 90.926 178.262 91.234 177.282 91.612C177.87 92.172 178.038 92.382 178.402 92.998C180.474 91.948 181.636 91.038 182.672 89.624C183.568 88.406 184.198 86.866 184.604 84.962C184.688 84.528 184.716 84.458 184.8 84.248L183.092 83.856ZM190.118 82.022C189.166 82.022 188.83 82.008 188.326 81.924V83.744C188.788 83.674 189.054 83.66 190.09 83.66H196.754C195.858 87.384 193.324 89.988 189.446 91.192C190.076 91.808 190.314 92.13 190.678 92.858C195.102 91.01 197.58 88.154 198.714 83.576C198.812 83.59 198.896 83.604 198.98 83.604C199.876 83.604 200.604 82.876 200.604 81.98C200.604 81.098 199.876 80.37 198.98 80.37C198.084 80.37 197.384 81.084 197.37 81.994C197.132 82.008 196.964 82.022 196.544 82.022H190.118ZM198.98 81.07C199.498 81.07 199.904 81.476 199.904 81.98C199.904 82.484 199.498 82.904 198.98 82.904C198.476 82.904 198.07 82.484 198.07 81.98C198.07 81.476 198.476 81.07 198.98 81.07ZM210.934 91.388V92.354H212.74C212.698 92.032 212.684 91.654 212.684 91.136V83.128C212.684 82.61 212.698 82.33 212.726 81.966C212.404 81.994 212.152 82.008 211.55 82.008H203.598C203.038 82.008 202.744 81.994 202.408 81.966C202.45 82.344 202.464 82.61 202.464 83.142V91.164C202.464 91.696 202.45 92.032 202.408 92.368H204.214V91.388H210.934ZM210.934 89.792H204.214V83.59H210.934V89.792ZM215.314 87.804C215.874 87.734 216.028 87.734 217.596 87.734H225.03C226.598 87.734 226.752 87.734 227.312 87.804V85.858C226.696 85.942 226.43 85.956 225.044 85.956H217.582C216.196 85.956 215.93 85.942 215.314 85.858V87.804ZM233.47 92.83C233.428 92.424 233.414 92.032 233.414 91.276V87.58C233.414 87.258 233.4 87.02 233.358 86.628C233.47 86.698 233.512 86.712 233.834 86.866C235.822 87.762 237.81 88.84 238.79 89.54L239.77 87.888C237.558 86.642 235.038 85.466 233.414 84.934V82.33C233.414 81.504 233.428 81.238 233.47 80.86H231.552C231.608 81.196 231.622 81.476 231.636 82.288V91.262C231.636 92.06 231.608 92.438 231.552 92.83H233.47ZM236.34 82.078C236.956 82.75 237.348 83.31 237.81 84.164L238.79 83.646C238.314 82.778 237.936 82.246 237.32 81.588L236.34 82.078ZM240.456 82.736C240.022 81.938 239.63 81.406 239 80.762L238.062 81.252C238.608 81.854 239.07 82.512 239.49 83.282L240.456 82.736Z" fill="#8A8A8A"/>
<path d="M170.2 58.8L170.2 60.1C170.2 62.2539 171.946 64 174.1 64L187.1 64C189.254 64 191 62.2539 191 60.1L191 58.8M185.8 48.4L180.6 43.2M180.6 43.2L175.4 48.4M180.6 43.2L180.6 58.8" stroke="#8A8A8A" stroke-width="2.6" stroke-linecap="round" stroke-linejoin="round"/>
</svg>
