<svg width="100" height="82" viewBox="0 0 100 82" fill="none" xmlns="http://www.w3.org/2000/svg">
<path d="M89.4956 20.5503C89.5561 21.4253 89.5561 22.3003 89.5561 23.1834C89.5561 50.0907 69.0722 81.1229 31.6165 81.1229V81.1068C20.552 81.1229 9.71735 77.9536 0.402832 71.9778C2.0117 72.1713 3.62864 72.2681 5.24961 72.2721C14.419 72.2802 23.3262 69.2036 30.5399 63.5382C21.8262 63.3729 14.1851 57.6915 11.5157 49.3971C14.5682 49.9858 17.7133 49.8648 20.7093 49.0463C11.2093 47.1269 4.37461 38.7802 4.37461 29.0866C4.37461 28.9979 4.37461 28.9132 4.37461 28.8286C7.20525 30.4052 10.3746 31.2802 13.6165 31.3769C4.66896 25.3971 1.9109 13.4939 7.31412 4.18742C17.6528 16.9092 32.9069 24.6431 49.2819 25.4616C47.6407 18.389 49.8827 10.9777 55.173 6.00597C63.3746 -1.70371 76.2738 -1.30854 83.9835 6.88904C88.544 5.98984 92.9149 4.31646 96.9149 1.94549C95.3948 6.6592 92.2133 10.6632 87.9633 13.2076C91.9996 12.7318 95.9432 11.6511 99.6569 10.0019C96.923 14.0987 93.4794 17.6673 89.4956 20.5503Z" fill="#1D9BF0"/>
</svg>
